<svg xmlns="http://www.w3.org/2000/svg" xmlns:xlink="http://www.w3.org/1999/xlink" width="21.108" height="25.312" viewBox="0 0 21.108 25.312"><defs><style>.a{fill:#4e565b;}.b{clip-path:url(#a);}</style><clipPath id="a"><rect class="a" width="21.108" height="25.312"/></clipPath></defs><g class="b"><path class="a" d="M18.578,10.707a.969.969,0,0,0,.362-.221.847.847,0,0,0,.205-.33,1.28,1.28,0,0,0,.064-.408.855.855,0,0,0-.284-.683,1.326,1.326,0,0,0-.881-.245h-.619v1.966h.619a1.593,1.593,0,0,0,.535-.08" transform="translate(-8.044 -4.072)"/><path class="a" d="M17.876,0H3.233A3.232,3.232,0,0,0,0,3.232V22.08a3.232,3.232,0,0,0,3.233,3.233H17.876a3.232,3.232,0,0,0,3.232-3.233V3.232A3.232,3.232,0,0,0,17.876,0M7.842,3.6H10a4.436,4.436,0,0,1,1.227.148,2.308,2.308,0,0,1,.828.412,1.561,1.561,0,0,1,.467.623,2.069,2.069,0,0,1,.145.783,2.1,2.1,0,0,1-.087.61,1.847,1.847,0,0,1-.257.53,2.01,2.01,0,0,1-.419.434,2.216,2.216,0,0,1-.571.314,1.462,1.462,0,0,1,.289.191,1.155,1.155,0,0,1,.235.278l1.41,2.307H11.874a.59.59,0,0,1-.555-.291l-1.1-1.925a.464.464,0,0,0-.171-.182.569.569,0,0,0-.275-.054H9.38v2.453H7.842Zm2.712,18.03H4.319V20.012h6.235Zm6.235-3.716H4.319V16.3h12.47Zm0-3.64H4.319V12.656h12.47Z" transform="translate(0 0)"/></g></svg>