<svg xmlns="http://www.w3.org/2000/svg" xmlns:xlink="http://www.w3.org/1999/xlink" width="21.542" height="25.832" viewBox="0 0 21.542 25.832"><defs><style>.a{fill:#4e565b;}.b{clip-path:url(#a);}</style><clipPath id="a"><rect class="a" width="21.542" height="25.832"/></clipPath></defs><g class="b"><path class="a" d="M27.3,9.371a.771.771,0,0,0-.293-.173,1.285,1.285,0,0,0-.419-.061h-.668v1.754h.668a.814.814,0,0,0,.942-.907.989.989,0,0,0-.057-.346.7.7,0,0,0-.173-.268" transform="translate(-11.68 -4.117)"/><path class="a" d="M18.243,0H3.3A3.3,3.3,0,0,0,0,3.3V22.533a3.3,3.3,0,0,0,3.3,3.3H18.243a3.3,3.3,0,0,0,3.3-3.3V3.3a3.3,3.3,0,0,0-3.3-3.3M5.486,4.06a.488.488,0,0,1,.279.076.351.351,0,0,1,.146.2l.759,2.886q.037.14.076.3a2.7,2.7,0,0,1,.057.334c.025-.119.053-.231.083-.336s.059-.2.088-.3l.9-2.886a.4.4,0,0,1,.146-.192.437.437,0,0,1,.271-.085h.38a.476.476,0,0,1,.275.074.383.383,0,0,1,.15.2l.888,2.886q.042.133.087.283a3.148,3.148,0,0,1,.08.321c.02-.112.041-.218.063-.319s.044-.2.066-.285l.759-2.886a.362.362,0,0,1,.144-.193.45.45,0,0,1,.273-.084h1.01L10.756,9.591H9.594L8.554,6.163c-.018-.053-.036-.111-.055-.175s-.037-.13-.055-.2c-.018.071-.036.138-.055.2s-.038.121-.055.175L7.278,9.591H6.116L4.408,4.06Zm5.285,18.011H4.408V20.423h6.363Zm6.363-3.792H4.408V16.631H17.134Zm0-3.715H4.408V12.916H17.134ZM17,6.626a1.52,1.52,0,0,1-.407.592A1.9,1.9,0,0,1,15.9,7.6a3.179,3.179,0,0,1-.993.139h-.668V9.591H12.958V4.06h1.952a3.225,3.225,0,0,1,1,.138,1.931,1.931,0,0,1,.691.382,1.487,1.487,0,0,1,.4.573,1.94,1.94,0,0,1,.129.714A2.1,2.1,0,0,1,17,6.626" transform="translate(0 0)"/></g></svg>