<svg xmlns="http://www.w3.org/2000/svg" xmlns:xlink="http://www.w3.org/1999/xlink" width="27.479" height="28.481" viewBox="0 0 27.479 28.481"><defs><clipPath id="a"><rect width="27.479" height="28.481" transform="translate(0 0)" fill="#fff"/></clipPath></defs><g transform="translate(0 0)"><g clip-path="url(#a)"><path d="M26.952,25.412l-5.69-5.69a12.1,12.1,0,1,0-2.7,2.388l5.845,5.845a1.8,1.8,0,0,0,2.543-2.543M12.027,3.6a8.422,8.422,0,0,1,6.4,13.9,2.465,2.465,0,0,0-1.518-1.9l-2.493-.993a.975.975,0,0,1-.615-.906v-.056a.976.976,0,0,1,.2-.6,5.625,5.625,0,0,0,1.232-3.24c0-1.929-.986-3.858-3.014-3.858A3.488,3.488,0,0,0,8.879,9.725,6.131,6.131,0,0,0,10.015,13.1a.975.975,0,0,1-.435,1.467L7.065,15.574a2.454,2.454,0,0,0-1.5,1.865A8.424,8.424,0,0,1,12.027,3.6" fill="#fff"/></g></g></svg>