<svg xmlns="http://www.w3.org/2000/svg" xmlns:xlink="http://www.w3.org/1999/xlink" width="20.751" height="24.884" viewBox="0 0 20.751 24.884"><defs><style>.a{fill:#ffffff;}.b{clip-path:url(#a);}</style><clipPath id="a"><rect class="a" width="20.751" height="24.884"/></clipPath></defs><g class="b"><path class="a" d="M19.29,10.117l-.137-.4c-.052-.153-.1-.32-.154-.5-.048.182-.1.35-.148.505s-.1.289-.143.4l-.6,1.776h1.78Z" transform="translate(-8.525 -4.34)"/><path class="a" d="M17.573,0H3.178A3.178,3.178,0,0,0,0,3.178V21.706a3.178,3.178,0,0,0,3.178,3.178h14.4a3.178,3.178,0,0,0,3.178-3.178V3.178A3.178,3.178,0,0,0,17.573,0M9.7,3.536h1.548l2.523,6.519H12.6a.543.543,0,0,1-.324-.092.475.475,0,0,1-.177-.235l-.385-1.136H9.235L8.85,9.728a.511.511,0,0,1-.175.226.5.5,0,0,1-.318.1H7.177Zm.675,17.725H4.246V19.673h6.13ZM16.5,17.608H4.246V16.021H16.5Zm0-3.579H4.246V12.442H16.5Z" transform="translate(0 0)"/></g></svg>