<svg xmlns="http://www.w3.org/2000/svg" width="25" height="28.577" viewBox="0 0 25 28.577"><defs><style>.a{fill:#4e565b;}</style></defs><path class="a" d="M17.824,20.759a9.821,9.821,0,1,0-10.647,0c.067.965.223,2.121.4,3.186L7.589,24a12.5,12.5,0,1,1,9.821,0l.011-.061c.173-1.071.335-2.221.4-3.181ZM17.7,18.633a3.6,3.6,0,0,0-.391-.9,3.8,3.8,0,0,0-1.222-1.25,5.357,5.357,0,1,0-7.165,0A3.8,3.8,0,0,0,7.7,17.729a3.6,3.6,0,0,0-.391.9,8.036,8.036,0,1,1,10.391,0Zm-5.2-1.222c1.836,0,3.571.48,3.571,2.444a40.843,40.843,0,0,1-1.15,7.416c-.285,1.06-1.367,1.306-2.422,1.306s-2.132-.246-2.422-1.306a40.006,40.006,0,0,1-1.15-7.411c0-1.959,1.735-2.444,3.571-2.444Zm0-1.786A3.125,3.125,0,1,1,15.625,12.5,3.127,3.127,0,0,1,12.5,15.625Z"/></svg>