<svg xmlns="http://www.w3.org/2000/svg" width="21.542" height="24.619" viewBox="0 0 21.542 24.619"><defs><style>.a{fill:#4e565b;}</style></defs><path class="a" d="M4.616,0A4.617,4.617,0,0,0,0,4.616V20a4.617,4.617,0,0,0,4.616,4.616H20a1.539,1.539,0,1,0,0-3.077V18.465a1.537,1.537,0,0,0,1.539-1.539V1.539A1.537,1.537,0,0,0,20,0H4.616Zm0,18.465h12.31v3.077H4.616a1.539,1.539,0,1,1,0-3.077ZM6.155,6.924a.772.772,0,0,1,.769-.769h9.232a.769.769,0,1,1,0,1.539H6.924A.772.772,0,0,1,6.155,6.924Zm.769,2.308h9.232a.769.769,0,1,1,0,1.539H6.924a.769.769,0,1,1,0-1.539Z"/></svg>