<svg xmlns="http://www.w3.org/2000/svg" xmlns:xlink="http://www.w3.org/1999/xlink" width="25.703" height="25.703" viewBox="0 0 25.703 25.703"><defs><style>.a{fill:#4e565b;}.b{clip-path:url(#a);}</style><clipPath id="a"><rect class="a" width="25.703" height="25.703"/></clipPath></defs><g class="b"><path class="a" d="M22.152,0H3.551A3.551,3.551,0,0,0,0,3.551v18.6A3.551,3.551,0,0,0,3.551,25.7h18.6A3.551,3.551,0,0,0,25.7,22.152V3.551A3.551,3.551,0,0,0,22.152,0M10.589,2.346A1.182,1.182,0,1,1,9.407,3.529a1.183,1.183,0,0,1,1.182-1.183m-3.431,0A1.182,1.182,0,1,1,5.975,3.529,1.183,1.183,0,0,1,7.158,2.346m-3.431,0A1.182,1.182,0,1,1,2.544,3.529,1.183,1.183,0,0,1,3.726,2.346M23.5,22.152A1.353,1.353,0,0,1,22.152,23.5H3.551A1.352,1.352,0,0,1,2.2,22.152V6.9H23.5Z" transform="translate(0 0)"/><rect class="a" width="6.371" height="1.65" transform="translate(6.097 18.066)"/><rect class="a" width="12.742" height="1.65" transform="translate(6.097 14.269)"/><rect class="a" width="12.742" height="1.65" transform="translate(6.097 10.549)"/></g></svg>