<svg xmlns="http://www.w3.org/2000/svg" xmlns:xlink="http://www.w3.org/1999/xlink" width="27" height="22.177" viewBox="0 0 27 22.177"><defs><style>.a{fill:#4e565b;}.b{clip-path:url(#a);}</style><clipPath id="a"><rect class="a" width="27" height="22.177"/></clipPath></defs><g class="b"><path class="a" d="M23.973,0H3.026A3.027,3.027,0,0,0,0,3.027V14.744a3.027,3.027,0,0,0,3.026,3.027h9.318v2.1H6.973v2.311H20.026V19.866H14.655v-2.1h9.318A3.027,3.027,0,0,0,27,14.744V3.027A3.027,3.027,0,0,0,23.973,0m.715,14.744a.716.716,0,0,1-.715.715H19.084l-.166-1.144a2.084,2.084,0,0,0-1.292-1.638l-2.106-.838A.824.824,0,0,1,15,11.073v-.047a.824.824,0,0,1,.173-.505,4.753,4.753,0,0,0,1.04-2.737c0-1.63-.832-3.259-2.545-3.259a2.946,2.946,0,0,0-2.829,3.19,5.174,5.174,0,0,0,.96,2.852.824.824,0,0,1-.368,1.238l-2.125.849a2.084,2.084,0,0,0-1.3,1.724L7.9,15.459H3.026a.717.717,0,0,1-.715-.715V3.027a.716.716,0,0,1,.715-.715H23.973a.716.716,0,0,1,.715.715Z" transform="translate(0 0)"/></g></svg>